<svg width="56" height="54" viewBox="0 0 56 54" fill="none" xmlns="http://www.w3.org/2000/svg">
<path d="M27.0093 12.0824L27.5904 6.39392C27.8242 4.10751 30.0765 2.55659 32.3539 3.11388C35.7806 3.95245 38.1847 6.96622 38.1847 10.4237V17.7115C38.1847 19.3325 38.1847 20.1429 38.5562 20.7389C38.7664 21.076 39.0559 21.3592 39.4002 21.565C40.009 21.9287 40.8371 21.9287 42.493 21.9287H43.4978C47.8152 21.9287 49.9739 21.9287 51.303 22.8665C52.2975 23.5677 52.9988 24.5974 53.2777 25.7655C53.6509 27.3271 52.8205 29.2775 51.16 33.1786L50.3322 35.1232C49.854 36.2466 49.6583 37.4655 49.7615 38.6783C50.3489 45.5782 44.5696 51.3939 37.5067 51.0099L11.0758 49.5727C8.18936 49.4156 6.74616 49.3371 5.44163 48.2442C4.13712 47.1511 3.89169 46.0256 3.40079 43.775C2.98236 41.8563 2.65625 39.5041 2.65625 36.8328C2.65625 33.8699 3.05739 31.2997 3.5407 29.2785C4.25759 26.2803 7.28148 24.6683 10.403 25.0501C18.6776 26.0625 26.1797 20.2043 27.0093 12.0824Z" stroke="white" stroke-width="4.80279" stroke-linecap="round" stroke-linejoin="round"/>
<path d="M15.3323 25.8125L14.985 26.909C12.736 34.0089 12.8573 41.5935 15.3323 48.6258" stroke="white" stroke-width="4.80279" stroke-linecap="round" stroke-linejoin="round"/>
</svg>
