<svg width="375" height="44" viewBox="0 0 375 44" fill="none" xmlns="http://www.w3.org/2000/svg">
<rect width="375" height="44" fill="#030C1A"/>
<g clip-path="url(#clip0_14519_62679)">
<path d="M78 -2H297C294.894 -1.39731 293.418 0.495246 293.345 2.68446L293.317 3.5618C293.317 17.0587 282.375 28 268.878 28H106.122C92.6249 28 81.6835 17.0587 81.6835 3.5618L81.6545 2.68447C81.5823 0.49525 80.1059 -1.39731 78 -2Z" fill="#030C1A"/>
<path opacity="0.35" d="M336.5 19.9948C336.5 18.7982 337.47 17.8281 338.667 17.8281H355.333C356.53 17.8281 357.5 18.7982 357.5 19.9948V25.9948C357.5 27.1914 356.53 28.1615 355.333 28.1615H338.667C337.47 28.1615 336.5 27.1914 336.5 25.9948V19.9948Z" stroke="white"/>
<path opacity="0.4" d="M359 20.9922V24.9922C359.805 24.6534 360.328 23.8653 360.328 22.9922C360.328 22.1191 359.805 21.331 359 20.9922Z" fill="white"/>
<path d="M338 20.6615C338 19.9251 338.597 19.3281 339.333 19.3281H354.667C355.403 19.3281 356 19.9251 356 20.6615V25.3281C356 26.0645 355.403 26.6615 354.667 26.6615H339.333C338.597 26.6615 338 26.0645 338 25.3281V20.6615Z" fill="white"/>
<path fill-rule="evenodd" clip-rule="evenodd" d="M323.324 19.6055C325.54 19.6055 327.671 20.457 329.277 21.9838C329.398 22.1017 329.591 22.1002 329.71 21.9805L330.866 20.8138C330.927 20.7531 330.96 20.6708 330.96 20.5852C330.959 20.4997 330.925 20.4178 330.864 20.3578C326.649 16.3182 319.999 16.3182 315.784 20.3578C315.723 20.4178 315.688 20.4996 315.688 20.5852C315.687 20.6707 315.721 20.753 315.781 20.8138L316.937 21.9805C317.056 22.1004 317.25 22.1018 317.37 21.9838C318.977 20.4569 321.108 19.6054 323.324 19.6055ZM323.324 23.4011C324.542 23.401 325.716 23.8536 326.618 24.6708C326.74 24.7868 326.932 24.7843 327.051 24.6651L328.206 23.4985C328.267 23.4373 328.301 23.3542 328.3 23.268C328.299 23.1817 328.263 23.0994 328.201 23.0395C325.453 20.4831 321.197 20.4831 318.449 23.0395C318.387 23.0994 318.352 23.1818 318.351 23.268C318.35 23.3543 318.384 23.4373 318.445 23.4985L319.599 24.6651C319.718 24.7843 319.91 24.7868 320.032 24.6708C320.934 23.8541 322.107 23.4016 323.324 23.4011ZM325.637 25.9549C325.639 26.0414 325.605 26.1248 325.543 26.1855L323.546 28.2011C323.487 28.2604 323.407 28.2937 323.324 28.2937C323.241 28.2937 323.161 28.2604 323.102 28.2011L321.105 26.1855C321.043 26.1248 321.009 26.0414 321.011 25.9549C321.013 25.8684 321.05 25.7864 321.114 25.7285C322.39 24.6496 324.258 24.6496 325.534 25.7285C325.598 25.7865 325.635 25.8684 325.637 25.9549Z" fill="white"/>
<path fill-rule="evenodd" clip-rule="evenodd" d="M309.664 17.6641H308.664C308.112 17.6641 307.664 18.1118 307.664 18.6641V27.3307C307.664 27.883 308.112 28.3307 308.664 28.3307H309.664C310.216 28.3307 310.664 27.883 310.664 27.3307V18.6641C310.664 18.1118 310.216 17.6641 309.664 17.6641ZM303.997 19.9974H304.997C305.55 19.9974 305.997 20.4451 305.997 20.9974V27.3307C305.997 27.883 305.55 28.3307 304.997 28.3307H303.997C303.445 28.3307 302.997 27.883 302.997 27.3307V20.9974C302.997 20.4451 303.445 19.9974 303.997 19.9974ZM300.331 22.3307H299.331C298.778 22.3307 298.331 22.7784 298.331 23.3307V27.3307C298.331 27.883 298.778 28.3307 299.331 28.3307H300.331C300.883 28.3307 301.331 27.883 301.331 27.3307V23.3307C301.331 22.7784 300.883 22.3307 300.331 22.3307ZM295.664 24.3307H294.664C294.112 24.3307 293.664 24.7784 293.664 25.3307V27.3307C293.664 27.883 294.112 28.3307 294.664 28.3307H295.664C296.216 28.3307 296.664 27.883 296.664 27.3307V25.3307C296.664 24.7784 296.216 24.3307 295.664 24.3307Z" fill="white"/>
<path d="M37.3203 28.2529C40.0083 28.2529 41.605 26.1509 41.605 22.5913C41.605 21.251 41.3486 20.123 40.8579 19.2515C40.1475 17.8965 38.9243 17.1641 37.3789 17.1641C35.0791 17.1641 33.4531 18.7095 33.4531 20.8774C33.4531 22.9136 34.918 24.3931 36.9321 24.3931C38.1699 24.3931 39.1733 23.8145 39.6714 22.811H39.6934C39.6934 22.811 39.7227 22.811 39.73 22.811C39.7446 22.811 39.7959 22.811 39.7959 22.811C39.7959 25.228 38.8804 26.6709 37.335 26.6709C36.4268 26.6709 35.7236 26.1729 35.4819 25.3745H33.5996C33.9146 27.1104 35.3867 28.2529 37.3203 28.2529ZM37.3862 22.8916C36.1704 22.8916 35.3062 22.0273 35.3062 20.8188C35.3062 19.6396 36.2144 18.7388 37.3936 18.7388C38.5728 18.7388 39.481 19.6543 39.481 20.8481C39.481 22.0273 38.5947 22.8916 37.3862 22.8916Z" fill="white"/>
<path d="M44.6961 28.1504C45.3919 28.1504 45.868 27.6523 45.868 26.9932C45.868 26.3267 45.3919 25.8359 44.6961 25.8359C44.0076 25.8359 43.5242 26.3267 43.5242 26.9932C43.5242 27.6523 44.0076 28.1504 44.6961 28.1504ZM44.6961 22.6572C45.3919 22.6572 45.868 22.1665 45.868 21.5073C45.868 20.8408 45.3919 20.3501 44.6961 20.3501C44.0076 20.3501 43.5242 20.8408 43.5242 21.5073C43.5242 22.1665 44.0076 22.6572 44.6961 22.6572Z" fill="white"/>
<path d="M52.7237 27.9966H54.5328V26.0264H55.961V24.4297H54.5328V17.4277H51.8668C49.9991 20.2402 48.5123 22.5913 47.5602 24.3418V26.0264H52.7237V27.9966ZM49.3106 24.3638C50.5411 22.1958 51.6397 20.46 52.6505 18.9658H52.753V24.4736H49.3106V24.3638Z" fill="white"/>
<path d="M59.9896 27.9966H61.8793V17.4277H59.997L57.2357 19.3613V21.1777L59.8651 19.332H59.9896V27.9966Z" fill="white"/>
</g>
<defs>
<clipPath id="clip0_14519_62679">
<rect width="375" height="44" fill="white"/>
</clipPath>
</defs>
</svg>
