<svg width="21" height="20" viewBox="0 0 21 20" fill="none" xmlns="http://www.w3.org/2000/svg">
<g clip-path="url(#clip0_10385_170479)">
<path d="M6.5625 10.296C6.5625 9.58404 7.07183 9.10938 7.5945 9.10938C8.1265 9.10938 8.6385 9.59337 8.6265 10.2854V10.296C8.6265 11.0094 8.11583 11.4827 7.5945 11.4827C7.08517 11.4827 6.5625 11.004 6.5625 10.296Z" fill="#BFBFBF"/>
<path d="M12.8048 10.2941C12.8048 9.91814 12.9195 9.65414 13.0635 9.49547C13.1459 9.4078 13.2465 9.33914 13.3582 9.29424C13.4698 9.24934 13.5899 9.22929 13.7101 9.23547C14.2315 9.23547 14.7421 9.7088 14.7421 10.4221C14.7421 11.1341 14.2315 11.6088 13.7101 11.6088C13.4968 11.6088 13.2888 11.5048 13.1101 11.2688C12.9077 10.9849 12.8008 10.6441 12.8048 10.2955V10.2941Z" fill="#BFBFBF"/>
<path fill-rule="evenodd" clip-rule="evenodd" d="M5.73073 16.1847C6.10006 16.3287 6.50806 16.474 6.95473 16.6073C6.16806 17.4233 4.9494 18.5673 4.9494 18.5673C1.1654 18.4473 0.664062 15.3473 0.664062 15.3473C0.664062 9.83535 3.13073 3.22201 3.13073 3.22201C5.59473 1.37268 7.94006 1.42201 7.94006 1.42201L8.1574 2.88334C7.0214 3.18601 5.85606 3.68468 4.60673 4.36735L5.29073 5.62068C7.35206 4.49668 9.03073 3.97268 10.6667 3.97135C12.3014 3.97135 13.9774 4.49268 16.0334 5.62068L16.7201 4.36735C15.4094 3.64868 14.1921 3.13401 13.0027 2.83801L13.3854 1.42201C13.3854 1.42201 15.7321 1.37134 18.1974 3.22068C18.1974 3.22068 20.6627 9.83268 20.6627 15.346C20.6627 15.346 20.1614 18.446 16.3774 18.566C16.3774 18.566 15.2387 17.4433 14.4867 16.634C14.8814 16.514 15.2814 16.3673 15.6867 16.1993C16.4246 15.9197 17.1286 15.5579 17.7854 15.1207L16.9987 13.9273C16.3427 14.3607 15.7227 14.6607 15.1747 14.8647L15.1654 14.8687L15.1587 14.8713L15.1454 14.8767C14.3994 15.1955 13.6191 15.4273 12.8201 15.5673L12.8081 15.5687C11.4294 15.8224 10.0154 15.817 8.63873 15.5527C7.8222 15.3926 7.02199 15.1583 6.24806 14.8527C5.57606 14.59 5.0014 14.3113 4.4454 13.922L3.62673 15.0927C4.30673 15.5687 4.99206 15.8953 5.72806 16.1833L5.73073 16.1847ZM7.5894 7.68334C6.15873 7.68334 5.12806 8.92335 5.12806 10.298C5.12806 11.6793 6.1814 12.914 7.5894 12.914C9.0174 12.914 10.0467 11.678 10.0494 10.3047C10.0694 8.91001 9.00673 7.68334 7.5894 7.68334ZM13.7121 7.81135C13.0361 7.81135 12.4334 8.06868 12.0054 8.54068C11.5854 9.00734 11.3787 9.63135 11.3787 10.298C11.3787 10.9647 11.5867 11.6247 11.9734 12.1353C12.3641 12.6527 12.9654 13.042 13.7121 13.042C15.1427 13.042 16.1721 11.802 16.1721 10.426C16.1721 9.05001 15.1427 7.81135 13.7121 7.81135Z" fill="#BFBFBF"/>
</g>
<defs>
<clipPath id="clip0_10385_170479">
<rect width="20" height="20" fill="white" transform="translate(0.664062)"/>
</clipPath>
</defs>
</svg>
