<svg width="20" height="20" viewBox="0 0 20 20" fill="none" xmlns="http://www.w3.org/2000/svg">
<path d="M7.89062 10.3039C7.89062 9.59185 8.39996 9.11719 8.92262 9.11719C9.45462 9.11719 9.96662 9.60119 9.95462 10.2932V10.3039C9.95462 11.0172 9.44396 11.4905 8.92262 11.4905C8.41329 11.4905 7.89062 11.0119 7.89062 10.3039Z" fill="#BFBFBF"/>
<path d="M14.1407 10.3019C14.1407 9.92595 14.2554 9.66195 14.3994 9.50328C14.4819 9.41562 14.5824 9.34695 14.6941 9.30205C14.8058 9.25715 14.9259 9.2371 15.0461 9.24328C15.5674 9.24328 16.0781 9.71662 16.0781 10.4299C16.0781 11.1419 15.5674 11.6166 15.0461 11.6166C14.8327 11.6166 14.6247 11.5126 14.4461 11.2766C14.2437 10.9928 14.1367 10.6519 14.1407 10.3033V10.3019Z" fill="#BFBFBF"/>
<path fill-rule="evenodd" clip-rule="evenodd" d="M5.06667 15.7628C5.436 15.9068 5.844 16.0521 6.29067 16.1855C5.504 17.0015 4.28533 18.1455 4.28533 18.1455C0.501333 18.0255 0 14.9255 0 14.9255C0 9.41347 2.46667 2.80014 2.46667 2.80014C4.93067 0.950804 7.276 1.00014 7.276 1.00014L7.49333 2.46147C6.35733 2.76414 5.192 3.2628 3.94267 3.94547L4.62667 5.1988C6.688 4.0748 8.36667 3.5508 10.0027 3.54947C11.6373 3.54947 13.3133 4.0708 15.3693 5.1988L16.056 3.94547C14.7453 3.2268 13.528 2.71214 12.3387 2.41614L12.7213 1.00014C12.7213 1.00014 15.068 0.94947 17.5333 2.7988C17.5333 2.7988 19.9987 9.4108 19.9987 14.9241C19.9987 14.9241 19.4973 18.0241 15.7133 18.1441C15.7133 18.1441 14.5747 17.0215 13.8227 16.2121C14.2173 16.0921 14.6173 15.9455 15.0227 15.7775C15.7605 15.4979 16.4645 15.136 17.1213 14.6988L16.3347 13.5055C15.6787 13.9388 15.0587 14.2388 14.5107 14.4428L14.5013 14.4468L14.4947 14.4495L14.4813 14.4548C13.7353 14.7736 12.9551 15.0054 12.156 15.1455L12.144 15.1468C10.7653 15.4005 9.35138 15.3951 7.97467 15.1308C7.15814 14.9707 6.35793 14.7364 5.584 14.4308C4.912 14.1681 4.33733 13.8895 3.78133 13.5001L2.96267 14.6708C3.64267 15.1468 4.328 15.4735 5.064 15.7615L5.06667 15.7628ZM6.92533 7.26147C5.49467 7.26147 4.464 8.50147 4.464 9.87614C4.464 11.2575 5.51733 12.4921 6.92533 12.4921C8.35333 12.4921 9.38267 11.2561 9.38533 9.8828C9.40533 8.48814 8.34267 7.26147 6.92533 7.26147ZM13.048 7.38947C12.372 7.38947 11.7693 7.6468 11.3413 8.1188C10.9213 8.58547 10.7147 9.20947 10.7147 9.87614C10.7147 10.5428 10.9227 11.2028 11.3093 11.7135C11.7 12.2308 12.3013 12.6201 13.048 12.6201C14.4787 12.6201 15.508 11.3801 15.508 10.0041C15.508 8.62814 14.4787 7.38947 13.048 7.38947Z" fill="#BFBFBF"/>
</svg>
