<svg width="21" height="20" viewBox="0 0 21 20" fill="none" xmlns="http://www.w3.org/2000/svg">
<g clip-path="url(#clip0_10385_170437)">
<path d="M5.95312 10.296C5.95312 9.58404 6.46246 9.10938 6.98512 9.10938C7.51712 9.10938 8.02912 9.59337 8.01712 10.2854V10.296C8.01712 11.0094 7.50646 11.4827 6.98512 11.4827C6.47579 11.4827 5.95312 11.004 5.95312 10.296Z" fill="#BFBFBF"/>
<path d="M12.1954 10.2941C12.1954 9.91814 12.3101 9.65414 12.4541 9.49547C12.5366 9.4078 12.6371 9.33914 12.7488 9.29424C12.8605 9.24934 12.9806 9.22929 13.1008 9.23547C13.6221 9.23547 14.1328 9.7088 14.1328 10.4221C14.1328 11.1341 13.6221 11.6088 13.1008 11.6088C12.8874 11.6088 12.6794 11.5048 12.5008 11.2688C12.2983 10.9849 12.1914 10.6441 12.1954 10.2955V10.2941Z" fill="#BFBFBF"/>
<path fill-rule="evenodd" clip-rule="evenodd" d="M5.12135 16.1847C5.49069 16.3287 5.89869 16.474 6.34535 16.6073C5.55869 17.4233 4.34002 18.5673 4.34002 18.5673C0.556021 18.4473 0.0546875 15.3473 0.0546875 15.3473C0.0546875 9.83535 2.52135 3.22201 2.52135 3.22201C4.98535 1.37268 7.33069 1.42201 7.33069 1.42201L7.54802 2.88334C6.41202 3.18601 5.24669 3.68468 3.99735 4.36735L4.68135 5.62068C6.74269 4.49668 8.42135 3.97268 10.0574 3.97135C11.692 3.97135 13.368 4.49268 15.424 5.62068L16.1107 4.36735C14.8 3.64868 13.5827 3.13401 12.3934 2.83801L12.776 1.42201C12.776 1.42201 15.1227 1.37134 17.588 3.22068C17.588 3.22068 20.0534 9.83268 20.0534 15.346C20.0534 15.346 19.552 18.446 15.768 18.566C15.768 18.566 14.6294 17.4433 13.8774 16.634C14.272 16.514 14.672 16.3673 15.0774 16.1993C15.8152 15.9197 16.5192 15.5579 17.176 15.1207L16.3894 13.9273C15.7334 14.3607 15.1134 14.6607 14.5654 14.8647L14.556 14.8687L14.5494 14.8713L14.536 14.8767C13.79 15.1955 13.0098 15.4273 12.2107 15.5673L12.1987 15.5687C10.82 15.8224 9.40607 15.817 8.02935 15.5527C7.21283 15.3926 6.41262 15.1583 5.63869 14.8527C4.96669 14.59 4.39202 14.3113 3.83602 13.922L3.01735 15.0927C3.69735 15.5687 4.38269 15.8953 5.11869 16.1833L5.12135 16.1847ZM6.98002 7.68334C5.54935 7.68334 4.51869 8.92335 4.51869 10.298C4.51869 11.6793 5.57202 12.914 6.98002 12.914C8.40802 12.914 9.43735 11.678 9.44002 10.3047C9.46002 8.91001 8.39735 7.68334 6.98002 7.68334ZM13.1027 7.81135C12.4267 7.81135 11.824 8.06868 11.396 8.54068C10.976 9.00734 10.7694 9.63135 10.7694 10.298C10.7694 10.9647 10.9774 11.6247 11.364 12.1353C11.7547 12.6527 12.356 13.042 13.1027 13.042C14.5334 13.042 15.5627 11.802 15.5627 10.426C15.5627 9.05001 14.5334 7.81135 13.1027 7.81135Z" fill="#BFBFBF"/>
</g>
<defs>
<clipPath id="clip0_10385_170437">
<rect width="20" height="20" fill="white" transform="translate(0.0546875)"/>
</clipPath>
</defs>
</svg>
