<svg width="16" height="17" viewBox="0 0 16 17" fill="none" xmlns="http://www.w3.org/2000/svg">
<g clip-path="url(#clip0_7282_142338)">
<path d="M8.01958 0.585833V0.593833C8.02758 0.633167 8.02758 0.6805 8.02758 0.727167V6.4105C8.01958 6.44183 7.99625 6.4505 7.97225 6.46583C7.80692 6.5445 7.64892 6.61517 7.48358 6.68583C7.25492 6.7885 7.01892 6.89917 6.79025 7.00183L5.96225 7.37983C5.7358 7.4808 5.51002 7.58324 5.28492 7.68717C5.01692 7.81383 4.74092 7.93183 4.47292 8.05783C4.24425 8.1605 4.01558 8.27117 3.77958 8.37317C3.59025 8.45983 3.40092 8.5385 3.21958 8.62517C3.20521 8.634 3.18903 8.63947 3.17225 8.64117C3.16425 8.64117 3.16425 8.64117 3.15625 8.63317L3.36958 8.2785C3.77892 7.6005 4.18092 6.9305 4.59092 6.25317C5.02425 5.52783 5.46558 4.8025 5.89958 4.07717C6.30158 3.40783 6.71092 2.73717 7.11292 2.06783C7.40492 1.57917 7.70425 1.0905 7.99625 0.601167C8.00358 0.585833 8.01158 0.577833 8.01158 0.5625H8.01958C8.01158 0.569833 8.01958 0.577833 8.01958 0.585833Z" fill="#8A92B2"/>
<path d="M12.871 8.63568L12.8783 8.64368L11.7196 9.32902L8.07829 11.481C8.0642 11.487 8.05097 11.4948 8.03896 11.5043C8.01562 11.5043 8.01562 11.481 8.01562 11.473V6.53102C8.01562 6.50768 8.01563 6.47635 8.02363 6.45235C8.03163 6.42102 8.05496 6.42902 8.07829 6.43635C8.18096 6.48368 8.29163 6.53102 8.39363 6.57835C8.70096 6.72035 9.00829 6.86235 9.31562 6.99635C9.58362 7.11435 9.84429 7.24035 10.1123 7.35902C10.3803 7.47702 10.6483 7.60302 10.9163 7.72102C11.1443 7.82368 11.381 7.93435 11.6096 8.03635C11.8383 8.13902 12.075 8.24968 12.303 8.35168C12.4843 8.43102 12.6656 8.51768 12.847 8.59635C12.847 8.61968 12.855 8.62768 12.871 8.63568Z" fill="#454A75"/>
<path d="M8.01958 16.3955C8.01958 16.4035 8.01158 16.4115 8.01158 16.4195H8.00358C8.00358 16.4035 7.98758 16.3955 7.97958 16.3795C7.49092 15.6941 7.00225 15.0008 6.51358 14.3148C6.01758 13.6135 5.51292 12.9041 5.01625 12.2028C4.53558 11.5248 4.04692 10.8388 3.56625 10.1615C3.43958 9.98013 3.31358 9.80679 3.18758 9.62546C3.17958 9.60946 3.17225 9.60146 3.15625 9.57812C3.17958 9.57812 3.19558 9.59346 3.20292 9.60146C3.88958 10.0035 4.56692 10.4055 5.25292 10.8075C6.04092 11.2728 6.82092 11.7375 7.60958 12.2028L8.01158 12.4388C8.02692 12.4548 8.02692 12.4708 8.02692 12.4861V16.2855C8.02692 16.3248 8.02692 16.3641 8.01958 16.3955Z" fill="#8A92B2"/>
<path d="M3.15692 8.65235V8.64435C3.40825 8.53369 3.65292 8.41569 3.90492 8.30502C4.22825 8.15569 4.55158 8.01369 4.87425 7.86369C5.11892 7.75369 5.37092 7.63569 5.61558 7.52502C5.97825 7.35969 6.33292 7.20169 6.69558 7.03635C6.93958 6.92569 7.18358 6.81569 7.43558 6.69769C7.60892 6.61835 7.79092 6.53969 7.96425 6.46102C7.97958 6.45302 8.00358 6.44502 8.01092 6.42969C8.01958 6.42969 8.01958 6.43702 8.01092 6.44502V11.4504C8.01092 11.4737 8.00358 11.497 8.01958 11.513C8.00358 11.537 7.98758 11.513 7.97958 11.505C7.90892 11.4657 7.83825 11.4264 7.76692 11.379C6.24625 10.4804 4.71692 9.57435 3.19558 8.67569C3.18357 8.66619 3.17034 8.65835 3.15625 8.65235H3.15692Z" fill="#62688F"/>
<path d="M12.8463 9.57812H12.855C12.855 9.59346 12.839 9.60946 12.831 9.62479C11.381 11.6668 9.93096 13.7161 8.48029 15.7575C8.33096 15.9701 8.17363 16.1828 8.02363 16.3955C8.01563 16.3875 8.01562 16.3801 8.01562 16.3721V12.4308C8.34629 12.2341 8.66896 12.0448 9.00096 11.8481C10.2776 11.0915 11.5543 10.3428 12.823 9.58613C12.831 9.59346 12.839 9.58612 12.847 9.57812H12.8463Z" fill="#62688F"/>
<path d="M8.016 6.44175V0.656417C8.016 0.633083 8.008 0.617083 8.024 0.59375C9.624 3.24975 11.224 5.89842 12.816 8.55375C12.8313 8.57775 12.8553 8.60908 12.8627 8.64042C12.7527 8.60175 12.65 8.54642 12.548 8.49908C12.4213 8.44375 12.288 8.38108 12.1613 8.32575C12.0827 8.28575 11.996 8.25442 11.9173 8.21508C11.7833 8.15242 11.6493 8.09708 11.5153 8.03442C11.4367 8.00242 11.358 7.96308 11.2787 7.92375L10.7587 7.68708C10.672 7.64775 10.5853 7.60842 10.4907 7.56908L10.112 7.40375C10.0318 7.37014 9.9531 7.33322 9.876 7.29308L9.356 7.05642C9.26933 7.01708 9.18267 6.97775 9.088 6.93842L8.70933 6.77308C8.62267 6.73308 8.544 6.69442 8.45733 6.65442C8.30733 6.58375 8.15733 6.51308 8 6.44975C8.024 6.44175 8.016 6.44175 8.016 6.44175Z" fill="#62688F"/>
</g>
<defs>
<clipPath id="clip0_7282_142338">
<rect width="16" height="16" fill="white" transform="translate(0 0.5)"/>
</clipPath>
</defs>
</svg>
