<svg width="17" height="10" viewBox="0 0 17 10" fill="none" xmlns="http://www.w3.org/2000/svg">
<path fill-rule="evenodd" clip-rule="evenodd" d="M0.310547 4.99986C0.310547 4.73464 0.415904 4.48029 0.60344 4.29275C0.790976 4.10522 1.04533 3.99986 1.31055 3.99986H12.8955L10.6035 1.70686C10.4314 1.53467 10.3279 1.30557 10.3127 1.06254C10.2974 0.819516 10.3713 0.579265 10.5205 0.386861L10.6035 0.292861C10.7757 0.120685 11.0048 0.0172534 11.2479 0.00197221C11.4909 -0.013309 11.7311 0.06061 11.9235 0.209861L12.0175 0.292861L16.0175 4.29286L16.0595 4.33686L16.1145 4.40486L16.1855 4.51486L16.2395 4.62886L16.2745 4.73386L16.3045 4.88286L16.3105 4.99986L16.3075 5.07486L16.2905 5.20086L16.2605 5.31186L16.2165 5.42286L16.1645 5.52086L16.0975 5.61686C16.0727 5.64843 16.046 5.67849 16.0175 5.70686L12.0175 9.70686C11.8376 9.88621 11.5961 9.99034 11.3422 9.99809C11.0882 10.0058 10.8408 9.91665 10.6503 9.74861C10.4597 9.58058 10.3402 9.34631 10.3161 9.09339C10.2921 8.84046 10.3651 8.58785 10.5205 8.38686L10.6035 8.29286L12.8955 5.99986H1.31055C1.04533 5.99986 0.790976 5.8945 0.60344 5.70697C0.415904 5.51943 0.310547 5.26508 0.310547 4.99986Z" fill="#F6E359"/>
</svg>
