<svg width="101" height="30" viewBox="0 0 101 30" fill="none" xmlns="http://www.w3.org/2000/svg">
<g clip-path="url(#clip0_14600_32043)">
<path d="M12.0624 23.4701V11.737H17.9458V23.4701H12.0624ZM23.93 0.00390625H29.8134V29.4157H23.93V11.737H17.9458V5.84892H23.93V0.00390625ZM6.16462 5.84892H12.0624V11.737H6.16462V29.4157H0.28125V0.00390625H6.16462V5.84892Z" fill="#F7E359"/>
<path d="M41.6466 23.5276H65.2665V29.4157H35.7344V0.00390625H41.6466V23.5276ZM100.711 23.5276H94.7986V17.6395H100.711V23.5276ZM71.1788 29.4157V23.5276H94.7986V29.4157H71.1788ZM94.7986 17.6395H77.0912V11.7658H94.7986V17.6395ZM100.711 0.00390625V5.87764H77.0912V0.00390625H100.711ZM71.1788 5.87764H77.0912V11.7658H71.1788V5.87764Z" fill="white"/>
</g>
<defs>
<clipPath id="clip0_14600_32043">
<rect width="101" height="30" fill="white"/>
</clipPath>
</defs>
</svg>
