<svg width="19" height="21" viewBox="0 0 19 21" fill="none" xmlns="http://www.w3.org/2000/svg">
<path d="M16.8727 0.46875H7.53372C6.50362 0.46875 5.66591 1.36575 5.66591 2.46875V6.46875H1.9303C0.90021 6.46875 0.0625 7.36575 0.0625 8.46875V18.4688C0.0625 19.5718 0.90021 20.4688 1.9303 20.4688H11.2693C12.2994 20.4688 13.1371 19.5718 13.1371 18.4688V14.4688H16.8727C17.9028 14.4688 18.7405 13.5717 18.7405 12.4688V2.46875C18.7405 1.36575 17.9028 0.46875 16.8727 0.46875ZM1.9303 18.4688V8.46875H11.2693L11.2712 18.4688H1.9303ZM16.8727 12.4688H13.1371V8.46875C13.1371 7.36575 12.2994 6.46875 11.2693 6.46875H7.53372V2.46875H16.8727V12.4688Z" fill="white"/>
</svg>
