<svg width="21" height="20" viewBox="0 0 21 20" fill="none" xmlns="http://www.w3.org/2000/svg">
<path fill-rule="evenodd" clip-rule="evenodd" d="M2.31055 9.99986C2.31055 9.73464 2.4159 9.48029 2.60344 9.29275C2.79098 9.10522 3.04533 8.99986 3.31055 8.99986H14.8955L12.6035 6.70686C12.4314 6.53467 12.3279 6.30557 12.3127 6.06254C12.2974 5.81952 12.3713 5.57927 12.5205 5.38686L12.6035 5.29286C12.7757 5.12068 13.0048 5.01725 13.2479 5.00197C13.4909 4.98669 13.7311 5.06061 13.9235 5.20986L14.0175 5.29286L18.0175 9.29286L18.0595 9.33686L18.1145 9.40486L18.1855 9.51486L18.2395 9.62886L18.2745 9.73386L18.3045 9.88286L18.3105 9.99986L18.3075 10.0749L18.2905 10.2009L18.2605 10.3119L18.2165 10.4229L18.1645 10.5209L18.0975 10.6169C18.0727 10.6484 18.046 10.6785 18.0175 10.7069L14.0175 14.7069C13.8376 14.8862 13.5961 14.9903 13.3422 14.9981C13.0882 15.0058 12.8408 14.9166 12.6503 14.7486C12.4597 14.5806 12.3402 14.3463 12.3161 14.0934C12.2921 13.8405 12.3651 13.5879 12.5205 13.3869L12.6035 13.2929L14.8955 10.9999H3.31055C3.04533 10.9999 2.79098 10.8945 2.60344 10.707C2.4159 10.5194 2.31055 10.2651 2.31055 9.99986Z" fill="#F6E359"/>
</svg>
