<svg width="34" height="35" viewBox="0 0 34 35" fill="none" xmlns="http://www.w3.org/2000/svg">
<path fill-rule="evenodd" clip-rule="evenodd" d="M12.0349 27.2513C12.5985 27.2513 13.139 27.4752 13.5375 27.8737C13.936 28.2722 14.1599 28.8127 14.1599 29.3763C14.1599 29.9399 13.936 30.4804 13.5375 30.8789C13.139 31.2774 12.5985 31.5013 12.0349 31.5013C11.4713 31.5013 10.9308 31.2774 10.5323 30.8789C10.1338 30.4804 9.90989 29.9399 9.90989 29.3763C9.90989 28.8127 10.1338 28.2722 10.5323 27.8737C10.9308 27.4752 11.4713 27.2513 12.0349 27.2513ZM24.7849 27.2513C25.3485 27.2513 25.889 27.4752 26.2875 27.8737C26.686 28.2722 26.9099 28.8127 26.9099 29.3763C26.9099 29.9399 26.686 30.4804 26.2875 30.8789C25.889 31.2774 25.3485 31.5013 24.7849 31.5013C24.2213 31.5013 23.6808 31.2774 23.2823 30.8789C22.8838 30.4804 22.6599 29.9399 22.6599 29.3763C22.6599 28.8127 22.8838 28.2722 23.2823 27.8737C23.6808 27.4752 24.2213 27.2513 24.7849 27.2513ZM4.24322 3.16797H7.07656C7.3876 3.16799 7.68999 3.27038 7.93706 3.45933C8.18413 3.64828 8.36215 3.91329 8.44364 4.21347L8.47622 4.3693L9.16331 8.83464H29.7432C29.9412 8.83463 30.137 8.87613 30.318 8.95645C30.4989 9.03677 30.661 9.15414 30.7939 9.30097C30.9267 9.4478 31.0272 9.62084 31.0891 9.80893C31.1509 9.99701 31.1726 10.196 31.1528 10.393L31.1259 10.5587L28.7856 21.0902C28.5855 21.991 28.0977 22.8022 27.3959 23.4013C26.6941 24.0003 25.8164 24.3547 24.8954 24.4109L24.6376 24.418H12.3409C11.3688 24.4179 10.426 24.0846 9.6699 23.4736C8.91377 22.8627 8.38995 22.0109 8.18581 21.0605L8.14047 20.814L5.86106 6.0013H4.24322C3.88214 6.0009 3.53484 5.86264 3.27228 5.61477C3.00972 5.36689 2.85172 5.02812 2.83056 4.66766C2.8094 4.3072 2.92668 3.95226 3.15843 3.67537C3.39018 3.39848 3.71892 3.22053 4.07747 3.17789L4.24322 3.16797ZM27.9766 11.668H9.59964L10.9398 20.3833C10.987 20.6908 11.1341 20.9742 11.3584 21.1898C11.5827 21.4054 11.8717 21.5412 12.1808 21.5761L12.3409 21.5846H24.6376C24.9317 21.5844 25.2185 21.4927 25.4582 21.3221C25.6978 21.1515 25.8784 20.9105 25.9749 20.6326L26.0202 20.4754L27.9766 11.668Z" fill="#BFBFBF"/>
</svg>
