<svg width="29" height="29" viewBox="0 0 29 29" fill="none" xmlns="http://www.w3.org/2000/svg">
<path d="M14.5191 3.51562C10.5195 3.51562 7.26908 6.76604 7.26908 10.7656V14.2577C7.26908 14.9948 6.95492 16.1185 6.58033 16.7469L5.19075 19.0548C4.33284 20.4806 4.92492 22.0635 6.49575 22.5952C11.7037 24.3352 17.3224 24.3352 22.5303 22.5952C23.9924 22.1119 24.6328 20.384 23.8353 19.0548L22.4458 16.7469C22.0833 16.1185 21.7691 14.9948 21.7691 14.2577V10.7656C21.7691 6.77813 18.5066 3.51562 14.5191 3.51562Z" stroke="#BFBFBF" stroke-width="2.5" stroke-miterlimit="10" stroke-linecap="round"/>
<path d="M16.7521 3.86625C15.2909 3.45009 13.7425 3.45009 12.2812 3.86625C12.6317 2.97208 13.5017 2.34375 14.5167 2.34375C15.5317 2.34375 16.4017 2.97208 16.7521 3.86625V3.86625Z" stroke="#BFBFBF" stroke-width="1.5" stroke-miterlimit="10" stroke-linecap="round" stroke-linejoin="round"/>
<path d="M18.1563 24.0312C18.1563 26.025 16.525 27.6563 14.5313 27.6563C13.5404 27.6563 12.6221 27.2454 11.9696 26.5929C11.2907 25.913 10.9084 24.9921 10.9062 24.0312" stroke="#BFBFBF" stroke-width="2" stroke-miterlimit="10"/>
</svg>
