<svg width="24" height="24" viewBox="0 0 24 24" fill="none" xmlns="http://www.w3.org/2000/svg">
<path d="M21.959 13.7164V21.0954H17.681V14.2104C17.681 12.4804 17.062 11.3004 15.514 11.3004C14.332 11.3004 13.628 12.0964 13.319 12.8654C13.206 13.1404 13.177 13.5234 13.177 13.9084V21.0954H8.897C8.897 21.0954 8.955 9.43544 8.897 8.22644H13.177V10.0504L13.149 10.0924H13.177V10.0504C13.745 9.17544 14.76 7.92444 17.033 7.92444C19.848 7.92444 21.959 9.76444 21.959 13.7164ZM4.421 2.02344C2.958 2.02344 2 2.98344 2 4.24644C2 5.48144 2.93 6.47044 4.365 6.47044H4.393C5.886 6.47044 6.813 5.48144 6.813 4.24644C6.787 2.98344 5.887 2.02344 4.422 2.02344H4.421ZM2.254 21.0954H6.532V8.22644H2.254V21.0954Z" fill="#BFBFBF"/>
</svg>
