<svg width="20" height="20" viewBox="0 0 20 20" fill="none" xmlns="http://www.w3.org/2000/svg">
<path d="M20 3.83073C19.25 4.16406 18.5 4.41406 17.6667 4.4974C18.5 3.9974 19.1667 3.16406 19.5 2.2474C18.6667 2.7474 17.8333 3.08073 16.9167 3.2474C16.1667 2.41406 15.0833 1.91406 13.9167 1.91406C11.6667 1.91406 9.83333 3.7474 9.83333 5.9974C9.83333 6.33073 9.83333 6.66406 9.91667 6.91406C6.41667 6.7474 3.41667 5.08073 1.41667 2.58073C1 3.2474 0.833333 3.91406 0.833333 4.66406C0.833333 6.08073 1.58333 7.33073 2.66667 8.08073C2 8.08073 1.33333 7.91406 0.833333 7.58073C0.833333 7.58073 0.833333 7.58073 0.833333 7.66406C0.833333 9.66406 2.25 11.3307 4.08333 11.6641C3.75 11.7474 3.41667 11.8307 3 11.8307C2.75 11.8307 2.5 11.8307 2.25 11.7474C2.75 13.4141 4.25 14.5807 6.08333 14.5807C4.66667 15.6641 2.91667 16.3307 1 16.3307C0.666667 16.3307 0.333333 16.3307 0 16.2474C1.83333 17.4141 4 18.0807 6.25 18.0807C13.8333 18.0807 17.9167 11.8307 17.9167 6.41406C17.9167 6.2474 17.9167 6.08073 17.9167 5.91406C18.75 5.33073 19.4167 4.58073 20 3.83073Z" fill="#BFBFBF"/>
</svg>
