<svg width="21" height="20" viewBox="0 0 21 20" fill="none" xmlns="http://www.w3.org/2000/svg">
<g clip-path="url(#clip0_10385_170476)">
<path d="M20.4609 3.83854C19.7109 4.17188 18.9609 4.42188 18.1276 4.50521C18.9609 4.00521 19.6276 3.17188 19.9609 2.25521C19.1276 2.75521 18.2943 3.08854 17.3776 3.25521C16.6276 2.42188 15.5443 1.92188 14.3776 1.92188C12.1276 1.92188 10.2943 3.75521 10.2943 6.00521C10.2943 6.33854 10.2943 6.67188 10.3776 6.92188C6.8776 6.75521 3.8776 5.08854 1.8776 2.58854C1.46094 3.25521 1.29427 3.92187 1.29427 4.67188C1.29427 6.08854 2.04427 7.33854 3.1276 8.08854C2.46094 8.08854 1.79427 7.92188 1.29427 7.58854C1.29427 7.58854 1.29427 7.58854 1.29427 7.67187C1.29427 9.67187 2.71094 11.3385 4.54427 11.6719C4.21094 11.7552 3.8776 11.8385 3.46094 11.8385C3.21094 11.8385 2.96094 11.8385 2.71094 11.7552C3.21094 13.4219 4.71094 14.5885 6.54427 14.5885C5.1276 15.6719 3.3776 16.3385 1.46094 16.3385C1.1276 16.3385 0.794271 16.3385 0.460938 16.2552C2.29427 17.4219 4.46094 18.0885 6.71094 18.0885C14.2943 18.0885 18.3776 11.8385 18.3776 6.42187C18.3776 6.25521 18.3776 6.08854 18.3776 5.92188C19.2109 5.33854 19.8776 4.58854 20.4609 3.83854Z" fill="#BFBFBF"/>
</g>
<defs>
<clipPath id="clip0_10385_170476">
<rect width="20" height="20" fill="white" transform="translate(0.460938)"/>
</clipPath>
</defs>
</svg>
