<svg width="20" height="20" viewBox="0 0 20 20" fill="none" xmlns="http://www.w3.org/2000/svg">
<path d="M20 3.83854C19.25 4.17188 18.5 4.42188 17.6667 4.50521C18.5 4.00521 19.1667 3.17188 19.5 2.25521C18.6667 2.75521 17.8333 3.08854 16.9167 3.25521C16.1667 2.42188 15.0833 1.92188 13.9167 1.92188C11.6667 1.92188 9.83333 3.75521 9.83333 6.00521C9.83333 6.33854 9.83333 6.67188 9.91667 6.92188C6.41667 6.75521 3.41667 5.08854 1.41667 2.58854C1 3.25521 0.833333 3.92187 0.833333 4.67188C0.833333 6.08854 1.58333 7.33854 2.66667 8.08854C2 8.08854 1.33333 7.92188 0.833333 7.58854C0.833333 7.58854 0.833333 7.58854 0.833333 7.67187C0.833333 9.67187 2.25 11.3385 4.08333 11.6719C3.75 11.7552 3.41667 11.8385 3 11.8385C2.75 11.8385 2.5 11.8385 2.25 11.7552C2.75 13.4219 4.25 14.5885 6.08333 14.5885C4.66667 15.6719 2.91667 16.3385 1 16.3385C0.666667 16.3385 0.333333 16.3385 0 16.2552C1.83333 17.4219 4 18.0885 6.25 18.0885C13.8333 18.0885 17.9167 11.8385 17.9167 6.42187C17.9167 6.25521 17.9167 6.08854 17.9167 5.92188C18.75 5.33854 19.4167 4.58854 20 3.83854Z" fill="#BFBFBF"/>
</svg>
