<svg width="21" height="20" viewBox="0 0 21 20" fill="none" xmlns="http://www.w3.org/2000/svg">
<g clip-path="url(#clip0_10385_170434)">
<path d="M20.8516 3.83854C20.1016 4.17188 19.3516 4.42188 18.5182 4.50521C19.3516 4.00521 20.0182 3.17188 20.3516 2.25521C19.5182 2.75521 18.6849 3.08854 17.7682 3.25521C17.0182 2.42188 15.9349 1.92188 14.7682 1.92188C12.5182 1.92188 10.6849 3.75521 10.6849 6.00521C10.6849 6.33854 10.6849 6.67188 10.7682 6.92188C7.26823 6.75521 4.26823 5.08854 2.26823 2.58854C1.85156 3.25521 1.6849 3.92187 1.6849 4.67188C1.6849 6.08854 2.4349 7.33854 3.51823 8.08854C2.85156 8.08854 2.1849 7.92188 1.6849 7.58854C1.6849 7.58854 1.6849 7.58854 1.6849 7.67187C1.6849 9.67187 3.10156 11.3385 4.9349 11.6719C4.60156 11.7552 4.26823 11.8385 3.85156 11.8385C3.60156 11.8385 3.35156 11.8385 3.10156 11.7552C3.60156 13.4219 5.10156 14.5885 6.9349 14.5885C5.51823 15.6719 3.76823 16.3385 1.85156 16.3385C1.51823 16.3385 1.1849 16.3385 0.851562 16.2552C2.6849 17.4219 4.85156 18.0885 7.10156 18.0885C14.6849 18.0885 18.7682 11.8385 18.7682 6.42187C18.7682 6.25521 18.7682 6.08854 18.7682 5.92188C19.6016 5.33854 20.2682 4.58854 20.8516 3.83854Z" fill="#BFBFBF"/>
</g>
<defs>
<clipPath id="clip0_10385_170434">
<rect width="20" height="20" fill="white" transform="translate(0.851562)"/>
</clipPath>
</defs>
</svg>
