<svg width="102" height="30" viewBox="0 0 102 30" fill="none" xmlns="http://www.w3.org/2000/svg">
<g clip-path="url(#clip0_14600_31977)">
<path d="M12.5624 23.474V11.741H18.4458V23.474H12.5624ZM24.43 0.0078125H30.3134V29.4196H24.43V11.741H18.4458V5.85283H24.43V0.0078125ZM6.66462 5.85283H12.5624V11.741H6.66462V29.4196H0.78125V0.0078125H6.66462V5.85283Z" fill="#F7E359"/>
<path d="M42.1466 23.5315H65.7665V29.4196H36.2344V0.0078125H42.1466V23.5315ZM101.211 23.5315H95.2986V17.6434H101.211V23.5315ZM71.6788 29.4196V23.5315H95.2986V29.4196H71.6788ZM95.2986 17.6434H77.5912V11.7697H95.2986V17.6434ZM101.211 0.0078125V5.88155H77.5912V0.0078125H101.211ZM71.6788 5.88155H77.5912V11.7697H71.6788V5.88155Z" fill="white"/>
</g>
<defs>
<clipPath id="clip0_14600_31977">
<rect width="101" height="30" fill="white" transform="translate(0.5)"/>
</clipPath>
</defs>
</svg>
